<svg xmlns="http://www.w3.org/2000/svg" xmlns:xlink="http://www.w3.org/1999/xlink" width="100" zoomAndPan="magnify" viewBox="0 0 75 44.999999" height="60" preserveAspectRatio="xMidYMid meet" version="1.0"><defs><g/></defs><g fill="#2b4743" fill-opacity="0.7804"><g transform="translate(5.293157, 36.352583)"><g><path d="M 1.046875 0.171875 L 6.09375 0.171875 C 6.625 0.171875 7.15625 -0.265625 7.15625 -0.984375 L 7.28125 -7.65625 L 10.65625 -0.65625 C 10.8125 -0.328125 11.140625 0.171875 11.640625 0.171875 L 16.6875 0.171875 C 17.28125 0.171875 17.765625 -0.359375 17.765625 -0.953125 L 18 -19.6875 C 18.0625 -20.3125 17.546875 -20.859375 16.9375 -20.859375 L 11.609375 -20.875 C 11.078125 -20.875 10.578125 -20.46875 10.578125 -19.75 L 10.546875 -12.6875 L 7.421875 -20.109375 C 7.25 -20.53125 6.859375 -20.828125 6.421875 -20.828125 L 1.09375 -20.859375 C 0.5625 -20.859375 0.0625 -20.4375 0.0625 -19.6875 L 0 -0.984375 C 0 -0.46875 0.5 0.171875 1.046875 0.171875 Z M 1.046875 0.171875 "/></g></g></g><g fill="#2b4743" fill-opacity="0.7804"><g transform="translate(25.360925, 36.352583)"><g><path d="M 6.53125 0 C 7.15625 0 7.6875 -0.53125 7.6875 -1.15625 L 8.046875 -19.609375 C 8.078125 -20.28125 7.484375 -20.796875 6.890625 -20.796875 L 1.1875 -20.828125 C 0.5625 -20.828125 0.0625 -20.34375 0.0625 -19.65625 L 0 -1.15625 C 0 -0.5625 0.53125 0 1.125 0 Z M 6.53125 0 "/></g></g></g><g fill="#2b4743" fill-opacity="0.7804"><g transform="translate(35.484108, 36.352583)"><g><path d="M 1.046875 0.171875 L 6.09375 0.171875 C 6.625 0.171875 7.15625 -0.265625 7.15625 -0.984375 L 7.28125 -7.65625 L 10.65625 -0.65625 C 10.8125 -0.328125 11.140625 0.171875 11.640625 0.171875 L 16.6875 0.171875 C 17.28125 0.171875 17.765625 -0.359375 17.765625 -0.953125 L 18 -19.6875 C 18.0625 -20.3125 17.546875 -20.859375 16.9375 -20.859375 L 11.609375 -20.875 C 11.078125 -20.875 10.578125 -20.46875 10.578125 -19.75 L 10.546875 -12.6875 L 7.421875 -20.109375 C 7.25 -20.53125 6.859375 -20.828125 6.421875 -20.828125 L 1.09375 -20.859375 C 0.5625 -20.859375 0.0625 -20.4375 0.0625 -19.6875 L 0 -0.984375 C 0 -0.46875 0.5 0.171875 1.046875 0.171875 Z M 1.046875 0.171875 "/></g></g></g><g fill="#2b4743" fill-opacity="0.7804"><g transform="translate(55.551876, 36.352583)"><g><path d="M 6.53125 0 C 7.15625 0 7.6875 -0.53125 7.6875 -1.15625 L 8.046875 -19.609375 C 8.078125 -20.28125 7.484375 -20.796875 6.890625 -20.796875 L 1.1875 -20.828125 C 0.5625 -20.828125 0.0625 -20.34375 0.0625 -19.65625 L 0 -1.15625 C 0 -0.5625 0.53125 0 1.125 0 Z M 6.53125 0 "/></g></g></g><g fill="#2b4743" fill-opacity="0.7804"><g transform="translate(65.675059, 36.352583)"><g><path d="M 2.53125 0.171875 C 3.953125 0.171875 5.078125 -0.953125 5.078125 -2.375 C 5.078125 -3.859375 3.921875 -4.90625 2.53125 -4.90625 C 1.0625 -4.90625 0 -3.796875 0 -2.375 C 0 -1.0625 1.046875 0.171875 2.53125 0.171875 Z M 2.53125 0.171875 "/></g></g></g><g fill="#da7073" fill-opacity="1"><g transform="translate(4.16428, 35.223705)"><g><path d="M 1.046875 0.171875 L 6.09375 0.171875 C 6.625 0.171875 7.15625 -0.265625 7.15625 -0.984375 L 7.28125 -7.65625 L 10.65625 -0.65625 C 10.8125 -0.328125 11.140625 0.171875 11.640625 0.171875 L 16.6875 0.171875 C 17.28125 0.171875 17.765625 -0.359375 17.765625 -0.953125 L 18 -19.6875 C 18.0625 -20.3125 17.546875 -20.859375 16.9375 -20.859375 L 11.609375 -20.875 C 11.078125 -20.875 10.578125 -20.46875 10.578125 -19.75 L 10.546875 -12.6875 L 7.421875 -20.109375 C 7.25 -20.53125 6.859375 -20.828125 6.421875 -20.828125 L 1.09375 -20.859375 C 0.5625 -20.859375 0.0625 -20.4375 0.0625 -19.6875 L 0 -0.984375 C 0 -0.46875 0.5 0.171875 1.046875 0.171875 Z M 1.046875 0.171875 "/></g></g></g><g fill="#da7073" fill-opacity="1"><g transform="translate(24.232048, 35.223705)"><g><path d="M 6.53125 0 C 7.15625 0 7.6875 -0.53125 7.6875 -1.15625 L 8.046875 -19.609375 C 8.078125 -20.28125 7.484375 -20.796875 6.890625 -20.796875 L 1.1875 -20.828125 C 0.5625 -20.828125 0.0625 -20.34375 0.0625 -19.65625 L 0 -1.15625 C 0 -0.5625 0.53125 0 1.125 0 Z M 6.53125 0 "/></g></g></g><g fill="#da7073" fill-opacity="1"><g transform="translate(34.355231, 35.223705)"><g><path d="M 1.046875 0.171875 L 6.09375 0.171875 C 6.625 0.171875 7.15625 -0.265625 7.15625 -0.984375 L 7.28125 -7.65625 L 10.65625 -0.65625 C 10.8125 -0.328125 11.140625 0.171875 11.640625 0.171875 L 16.6875 0.171875 C 17.28125 0.171875 17.765625 -0.359375 17.765625 -0.953125 L 18 -19.6875 C 18.0625 -20.3125 17.546875 -20.859375 16.9375 -20.859375 L 11.609375 -20.875 C 11.078125 -20.875 10.578125 -20.46875 10.578125 -19.75 L 10.546875 -12.6875 L 7.421875 -20.109375 C 7.25 -20.53125 6.859375 -20.828125 6.421875 -20.828125 L 1.09375 -20.859375 C 0.5625 -20.859375 0.0625 -20.4375 0.0625 -19.6875 L 0 -0.984375 C 0 -0.46875 0.5 0.171875 1.046875 0.171875 Z M 1.046875 0.171875 "/></g></g></g><g fill="#da7073" fill-opacity="1"><g transform="translate(54.422998, 35.223705)"><g><path d="M 6.53125 0 C 7.15625 0 7.6875 -0.53125 7.6875 -1.15625 L 8.046875 -19.609375 C 8.078125 -20.28125 7.484375 -20.796875 6.890625 -20.796875 L 1.1875 -20.828125 C 0.5625 -20.828125 0.0625 -20.34375 0.0625 -19.65625 L 0 -1.15625 C 0 -0.5625 0.53125 0 1.125 0 Z M 6.53125 0 "/></g></g></g><g fill="#da7073" fill-opacity="1"><g transform="translate(64.546182, 35.223705)"><g><path d="M 2.53125 0.171875 C 3.953125 0.171875 5.078125 -0.953125 5.078125 -2.375 C 5.078125 -3.859375 3.921875 -4.90625 2.53125 -4.90625 C 1.0625 -4.90625 0 -3.796875 0 -2.375 C 0 -1.0625 1.046875 0.171875 2.53125 0.171875 Z M 2.53125 0.171875 "/></g></g></g></svg>