<svg xmlns="http://www.w3.org/2000/svg" xmlns:xlink="http://www.w3.org/1999/xlink" width="100" zoomAndPan="magnify" viewBox="0 0 75 74.999997" height="100" preserveAspectRatio="xMidYMid meet" version="1.0"><defs><g/></defs><g fill="#2b4743" fill-opacity="0.7804"><g transform="translate(1.810616, 49.094217)"><g><path d="M 1.15625 0.203125 L 6.75 0.203125 C 7.34375 0.203125 7.9375 -0.296875 7.9375 -1.078125 L 8.0625 -8.484375 L 11.8125 -0.71875 C 11.984375 -0.359375 12.34375 0.203125 12.90625 0.203125 L 18.5 0.203125 C 19.15625 0.203125 19.671875 -0.390625 19.671875 -1.046875 L 19.9375 -21.8125 C 20 -22.515625 19.453125 -23.09375 18.75 -23.09375 L 12.859375 -23.140625 C 12.28125 -23.140625 11.71875 -22.671875 11.71875 -21.875 L 11.6875 -14.046875 L 8.234375 -22.28125 C 8.03125 -22.734375 7.59375 -23.0625 7.109375 -23.0625 L 1.21875 -23.09375 C 0.625 -23.09375 0.0625 -22.640625 0.0625 -21.8125 L 0 -1.078125 C 0 -0.53125 0.5625 0.203125 1.15625 0.203125 Z M 1.15625 0.203125 "/></g></g></g><g fill="#2b4743" fill-opacity="0.7804"><g transform="translate(24.047643, 49.094217)"><g><path d="M 7.234375 0 C 7.9375 0 8.515625 -0.59375 8.515625 -1.28125 L 8.921875 -21.71875 C 8.953125 -22.46875 8.296875 -23.03125 7.640625 -23.03125 L 1.3125 -23.0625 C 0.625 -23.0625 0.0625 -22.546875 0.0625 -21.78125 L 0 -1.28125 C 0 -0.625 0.59375 0 1.25 0 Z M 7.234375 0 "/></g></g></g><g fill="#2b4743" fill-opacity="0.7804"><g transform="translate(35.264984, 49.094217)"><g><path d="M 1.15625 0.203125 L 6.75 0.203125 C 7.34375 0.203125 7.9375 -0.296875 7.9375 -1.078125 L 8.0625 -8.484375 L 11.8125 -0.71875 C 11.984375 -0.359375 12.34375 0.203125 12.90625 0.203125 L 18.5 0.203125 C 19.15625 0.203125 19.671875 -0.390625 19.671875 -1.046875 L 19.9375 -21.8125 C 20 -22.515625 19.453125 -23.09375 18.75 -23.09375 L 12.859375 -23.140625 C 12.28125 -23.140625 11.71875 -22.671875 11.71875 -21.875 L 11.6875 -14.046875 L 8.234375 -22.28125 C 8.03125 -22.734375 7.59375 -23.0625 7.109375 -23.0625 L 1.21875 -23.09375 C 0.625 -23.09375 0.0625 -22.640625 0.0625 -21.8125 L 0 -1.078125 C 0 -0.53125 0.5625 0.203125 1.15625 0.203125 Z M 1.15625 0.203125 "/></g></g></g><g fill="#2b4743" fill-opacity="0.7804"><g transform="translate(57.502014, 49.094217)"><g><path d="M 7.234375 0 C 7.9375 0 8.515625 -0.59375 8.515625 -1.28125 L 8.921875 -21.71875 C 8.953125 -22.46875 8.296875 -23.03125 7.640625 -23.03125 L 1.3125 -23.0625 C 0.625 -23.0625 0.0625 -22.546875 0.0625 -21.78125 L 0 -1.28125 C 0 -0.625 0.59375 0 1.25 0 Z M 7.234375 0 "/></g></g></g><g fill="#2b4743" fill-opacity="0.7804"><g transform="translate(68.719351, 49.094217)"><g><path d="M 2.796875 0.203125 C 4.375 0.203125 5.625 -1.046875 5.625 -2.625 C 5.625 -4.28125 4.34375 -5.421875 2.796875 -5.421875 C 1.1875 -5.421875 0 -4.21875 0 -2.625 C 0 -1.1875 1.15625 0.203125 2.796875 0.203125 Z M 2.796875 0.203125 "/></g></g></g><g fill="#da7073" fill-opacity="1"><g transform="translate(0.560042, 47.843643)"><g><path d="M 1.15625 0.203125 L 6.75 0.203125 C 7.34375 0.203125 7.9375 -0.296875 7.9375 -1.078125 L 8.0625 -8.484375 L 11.8125 -0.71875 C 11.984375 -0.359375 12.34375 0.203125 12.90625 0.203125 L 18.5 0.203125 C 19.15625 0.203125 19.671875 -0.390625 19.671875 -1.046875 L 19.9375 -21.8125 C 20 -22.515625 19.453125 -23.09375 18.75 -23.09375 L 12.859375 -23.140625 C 12.28125 -23.140625 11.71875 -22.671875 11.71875 -21.875 L 11.6875 -14.046875 L 8.234375 -22.28125 C 8.03125 -22.734375 7.59375 -23.0625 7.109375 -23.0625 L 1.21875 -23.09375 C 0.625 -23.09375 0.0625 -22.640625 0.0625 -21.8125 L 0 -1.078125 C 0 -0.53125 0.5625 0.203125 1.15625 0.203125 Z M 1.15625 0.203125 "/></g></g></g><g fill="#da7073" fill-opacity="1"><g transform="translate(22.797069, 47.843643)"><g><path d="M 7.234375 0 C 7.9375 0 8.515625 -0.59375 8.515625 -1.28125 L 8.921875 -21.71875 C 8.953125 -22.46875 8.296875 -23.03125 7.640625 -23.03125 L 1.3125 -23.0625 C 0.625 -23.0625 0.0625 -22.546875 0.0625 -21.78125 L 0 -1.28125 C 0 -0.625 0.59375 0 1.25 0 Z M 7.234375 0 "/></g></g></g><g fill="#da7073" fill-opacity="1"><g transform="translate(34.01441, 47.843643)"><g><path d="M 1.15625 0.203125 L 6.75 0.203125 C 7.34375 0.203125 7.9375 -0.296875 7.9375 -1.078125 L 8.0625 -8.484375 L 11.8125 -0.71875 C 11.984375 -0.359375 12.34375 0.203125 12.90625 0.203125 L 18.5 0.203125 C 19.15625 0.203125 19.671875 -0.390625 19.671875 -1.046875 L 19.9375 -21.8125 C 20 -22.515625 19.453125 -23.09375 18.75 -23.09375 L 12.859375 -23.140625 C 12.28125 -23.140625 11.71875 -22.671875 11.71875 -21.875 L 11.6875 -14.046875 L 8.234375 -22.28125 C 8.03125 -22.734375 7.59375 -23.0625 7.109375 -23.0625 L 1.21875 -23.09375 C 0.625 -23.09375 0.0625 -22.640625 0.0625 -21.8125 L 0 -1.078125 C 0 -0.53125 0.5625 0.203125 1.15625 0.203125 Z M 1.15625 0.203125 "/></g></g></g><g fill="#da7073" fill-opacity="1"><g transform="translate(56.25144, 47.843643)"><g><path d="M 7.234375 0 C 7.9375 0 8.515625 -0.59375 8.515625 -1.28125 L 8.921875 -21.71875 C 8.953125 -22.46875 8.296875 -23.03125 7.640625 -23.03125 L 1.3125 -23.0625 C 0.625 -23.0625 0.0625 -22.546875 0.0625 -21.78125 L 0 -1.28125 C 0 -0.625 0.59375 0 1.25 0 Z M 7.234375 0 "/></g></g></g><g fill="#da7073" fill-opacity="1"><g transform="translate(67.468778, 47.843643)"><g><path d="M 2.796875 0.203125 C 4.375 0.203125 5.625 -1.046875 5.625 -2.625 C 5.625 -4.28125 4.34375 -5.421875 2.796875 -5.421875 C 1.1875 -5.421875 0 -4.21875 0 -2.625 C 0 -1.1875 1.15625 0.203125 2.796875 0.203125 Z M 2.796875 0.203125 "/></g></g></g></svg>