<svg xmlns="http://www.w3.org/2000/svg" xmlns:xlink="http://www.w3.org/1999/xlink" width="80" zoomAndPan="magnify" viewBox="0 0 60 60" height="80" preserveAspectRatio="xMidYMid meet" version="1.0"><defs><clipPath id="fa11103cfe"><path d="M 8.738281 6.824219 L 51.488281 6.824219 L 51.488281 53.324219 L 8.738281 53.324219 Z M 8.738281 6.824219 " clip-rule="nonzero"/></clipPath></defs><g clip-path="url(#fa11103cfe)"><path fill="#2196f3" d="M 51.222656 7.144531 C 51.027344 6.929688 50.789062 6.824219 50.5 6.824219 L 9.722656 6.824219 C 9.585938 6.824219 9.453125 6.851562 9.328125 6.90625 C 9.203125 6.960938 9.09375 7.042969 9 7.144531 C 8.90625 7.246094 8.839844 7.359375 8.796875 7.492188 C 8.753906 7.621094 8.738281 7.753906 8.753906 7.890625 L 12.636719 46.640625 C 12.675781 47.058594 12.898438 47.332031 13.292969 47.464844 L 30.769531 53.277344 C 30.871094 53.308594 30.976562 53.324219 31.082031 53.324219 C 31.199219 53.324219 31.316406 53.304688 31.425781 53.261719 L 46.960938 47.449219 C 47.335938 47.3125 47.546875 47.042969 47.589844 46.640625 L 51.472656 7.890625 C 51.5 7.605469 51.417969 7.355469 51.222656 7.144531 Z M 51.222656 7.144531 " fill-opacity="1" fill-rule="nonzero"/></g><path fill="#fafafa" d="M 31.082031 43.636719 C 30.980469 43.636719 30.875 43.621094 30.777344 43.589844 L 22.039062 40.683594 C 21.683594 40.566406 21.46875 40.324219 21.394531 39.957031 L 20.421875 35.113281 C 20.371094 34.851562 20.417969 34.609375 20.5625 34.386719 C 20.710938 34.160156 20.917969 34.023438 21.179688 33.96875 C 21.441406 33.917969 21.6875 33.964844 21.910156 34.109375 C 22.132812 34.257812 22.273438 34.464844 22.324219 34.726562 L 23.1875 39.015625 L 31.0625 41.640625 L 37.988281 39.050781 L 41.582031 18.449219 L 19.433594 18.449219 C 19.164062 18.449219 18.9375 18.355469 18.746094 18.167969 C 18.554688 17.976562 18.460938 17.75 18.460938 17.480469 C 18.460938 17.214844 18.554688 16.984375 18.746094 16.796875 C 18.9375 16.609375 19.164062 16.511719 19.433594 16.511719 L 42.734375 16.511719 C 42.878906 16.511719 43.015625 16.542969 43.144531 16.601562 C 43.273438 16.664062 43.386719 16.75 43.476562 16.859375 C 43.570312 16.96875 43.636719 17.089844 43.671875 17.230469 C 43.710938 17.367188 43.714844 17.507812 43.691406 17.648438 L 39.808594 39.929688 C 39.742188 40.292969 39.539062 40.539062 39.191406 40.667969 L 31.425781 43.574219 C 31.316406 43.617188 31.199219 43.636719 31.082031 43.636719 Z M 31.082031 43.636719 " fill-opacity="1" fill-rule="nonzero"/><path fill="#fafafa" d="M 40.792969 28.136719 L 20.402344 28.136719 C 20.136719 28.136719 19.90625 28.042969 19.71875 27.855469 C 19.527344 27.664062 19.433594 27.4375 19.433594 27.167969 C 19.433594 26.902344 19.527344 26.671875 19.71875 26.484375 C 19.90625 26.296875 20.136719 26.199219 20.402344 26.199219 L 40.792969 26.199219 C 41.058594 26.199219 41.289062 26.296875 41.480469 26.484375 C 41.667969 26.671875 41.761719 26.902344 41.761719 27.167969 C 41.761719 27.4375 41.667969 27.664062 41.480469 27.855469 C 41.289062 28.042969 41.058594 28.136719 40.792969 28.136719 Z M 40.792969 28.136719 " fill-opacity="1" fill-rule="nonzero"/></svg>