<svg xmlns="http://www.w3.org/2000/svg" xmlns:xlink="http://www.w3.org/1999/xlink" width="80" zoomAndPan="magnify" viewBox="0 0 60 60" height="80" preserveAspectRatio="xMidYMid meet" version="1.0"><defs><clipPath id="aad5bc2c46"><path d="M 9.742188 7 L 50.242188 7 L 50.242188 53.382812 L 9.742188 53.382812 Z M 9.742188 7 " clip-rule="nonzero"/></clipPath></defs><g clip-path="url(#aad5bc2c46)"><path fill="#e44d26" d="M 13.417969 48.632812 L 9.730469 7.015625 L 50.253906 7.015625 L 46.5625 48.625 L 29.964844 53.253906 Z M 13.417969 48.632812 " fill-opacity="1" fill-rule="nonzero"/></g><path fill="#f16529" d="M 43.402344 45.976562 L 46.554688 10.417969 L 29.992188 10.417969 L 29.992188 49.71875 Z M 43.402344 45.976562 " fill-opacity="1" fill-rule="nonzero"/><path fill="#ebebeb" d="M 29.972656 15.523438 L 17.269531 15.523438 L 18.640625 30.957031 L 29.992188 30.957031 L 29.992188 25.855469 L 23.277344 25.855469 L 22.816406 20.628906 L 29.992188 20.628906 L 29.992188 15.523438 Z M 29.992188 39.09375 L 29.96875 39.097656 L 24.320312 37.5625 L 23.960938 33.492188 L 18.867188 33.492188 L 19.578125 41.507812 L 29.96875 44.398438 L 29.992188 44.390625 Z M 29.992188 39.09375 " fill-opacity="1" fill-rule="nonzero"/><path fill="#ffffff" d="M 29.972656 30.957031 L 36.222656 30.957031 L 35.648438 37.574219 L 29.988281 39.113281 L 29.988281 44.421875 L 40.390625 41.523438 L 41.78125 25.851562 L 29.992188 25.851562 Z M 42.5625 16.890625 L 42.683594 15.523438 L 29.972656 15.523438 L 29.972656 20.625 L 42.226562 20.625 L 42.324219 19.480469 Z M 42.5625 16.890625 " fill-opacity="1" fill-rule="nonzero"/></svg>