<svg xmlns="http://www.w3.org/2000/svg" xmlns:xlink="http://www.w3.org/1999/xlink" width="80" zoomAndPan="magnify" viewBox="0 0 60 60" height="80" preserveAspectRatio="xMidYMid meet" version="1.0"><defs><clipPath id="97da86154d"><path d="M 6.882812 6.882812 L 53.382812 6.882812 L 53.382812 53.382812 L 6.882812 53.382812 Z M 6.882812 6.882812 " clip-rule="nonzero"/></clipPath><clipPath id="41d04b87bc"><path d="M 6.882812 6.882812 L 31 6.882812 L 31 53.382812 L 6.882812 53.382812 Z M 6.882812 6.882812 " clip-rule="nonzero"/></clipPath></defs><g clip-path="url(#97da86154d)"><path fill="#ffc44d" d="M 8.613281 6.777344 C 8.148438 6.777344 7.707031 6.976562 7.398438 7.324219 C 7.089844 7.671875 6.945312 8.136719 7.003906 8.597656 L 11.332031 43.203125 C 11.398438 43.742188 11.730469 44.210938 12.214844 44.453125 L 29.515625 53.105469 C 29.972656 53.332031 30.511719 53.332031 30.96875 53.105469 L 48.269531 44.453125 C 48.753906 44.210938 49.085938 43.742188 49.152344 43.203125 L 53.480469 8.597656 C 53.539062 8.136719 53.394531 7.671875 53.085938 7.324219 C 52.777344 6.976562 52.335938 6.777344 51.871094 6.777344 Z M 8.613281 6.777344 " fill-opacity="1" fill-rule="nonzero"/></g><g clip-path="url(#41d04b87bc)"><path fill="#e5b045" d="M 30.242188 6.777344 L 30.242188 53.277344 C 29.992188 53.277344 29.746094 53.21875 29.515625 53.105469 L 12.214844 44.453125 C 11.730469 44.210938 11.398438 43.742188 11.332031 43.203125 L 7.003906 8.597656 C 6.945312 8.136719 7.089844 7.671875 7.398438 7.324219 C 7.707031 6.976562 8.148438 6.777344 8.613281 6.777344 Z M 30.242188 6.777344 " fill-opacity="1" fill-rule="evenodd"/></g><path fill="#cfd8dc" d="M 26.996094 13.265625 C 27.894531 13.265625 28.621094 13.992188 28.621094 14.886719 L 28.621094 43.003906 C 28.621094 43.582031 28.3125 44.113281 27.8125 44.40625 C 27.3125 44.695312 26.695312 44.699219 26.191406 44.410156 L 18.625 40.085938 C 17.84375 39.640625 17.574219 38.648438 18.019531 37.871094 C 18.464844 37.09375 19.457031 36.824219 20.234375 37.269531 L 25.375 40.207031 L 25.375 14.886719 C 25.375 13.992188 26.101562 13.265625 26.996094 13.265625 Z M 26.996094 13.265625 " fill-opacity="1" fill-rule="evenodd"/><path fill="#eceff1" d="M 31.863281 14.886719 C 31.863281 13.992188 32.589844 13.265625 33.488281 13.265625 L 44.300781 13.265625 C 45.195312 13.265625 45.921875 13.992188 45.921875 14.886719 C 45.921875 15.78125 45.195312 16.507812 44.300781 16.507812 L 35.109375 16.507812 L 35.109375 26.921875 L 42.867188 25.199219 C 43.371094 25.085938 43.902344 25.222656 44.289062 25.5625 C 44.679688 25.90625 44.882812 26.414062 44.835938 26.929688 L 43.753906 38.824219 C 43.703125 39.382812 43.367188 39.875 42.863281 40.128906 L 34.210938 44.453125 C 33.410156 44.855469 32.4375 44.527344 32.035156 43.726562 C 31.636719 42.925781 31.960938 41.953125 32.761719 41.550781 L 40.605469 37.628906 L 41.402344 28.847656 L 33.839844 30.527344 C 33.359375 30.632812 32.855469 30.515625 32.472656 30.210938 C 32.085938 29.902344 31.863281 29.4375 31.863281 28.945312 Z M 31.863281 14.886719 " fill-opacity="1" fill-rule="evenodd"/></svg>