<svg xmlns="http://www.w3.org/2000/svg" xmlns:xlink="http://www.w3.org/1999/xlink" width="80" zoomAndPan="magnify" viewBox="0 0 60 60" height="80" preserveAspectRatio="xMidYMid meet" version="1.0"><defs><clipPath id="dd7d304f0f"><path d="M 18 5.195312 L 42 5.195312 L 42 54.695312 L 18 54.695312 Z M 18 5.195312 " clip-rule="nonzero"/></clipPath></defs><g clip-path="url(#dd7d304f0f)"><path fill="#01ec64" d="M 34.304688 10.796875 C 32.230469 8.339844 30.441406 5.847656 30.078125 5.328125 C 30.070312 5.320312 30.058594 5.3125 30.046875 5.308594 C 30.035156 5.300781 30.023438 5.300781 30.011719 5.300781 C 29.996094 5.300781 29.984375 5.300781 29.972656 5.308594 C 29.960938 5.3125 29.953125 5.320312 29.941406 5.328125 C 29.578125 5.847656 27.789062 8.339844 25.714844 10.796875 C 7.894531 33.449219 28.519531 48.738281 28.519531 48.738281 L 28.691406 48.855469 C 28.847656 51.214844 29.230469 54.609375 29.230469 54.609375 L 30.769531 54.609375 C 30.769531 54.609375 31.152344 51.234375 31.308594 48.855469 L 31.480469 48.71875 C 31.5 48.738281 52.125 33.449219 34.304688 10.796875 Z M 30 48.394531 C 30 48.394531 29.078125 47.609375 28.828125 47.203125 L 28.828125 47.167969 L 29.941406 22.496094 C 29.941406 22.421875 30.058594 22.421875 30.058594 22.496094 L 31.171875 47.167969 L 31.171875 47.203125 C 30.921875 47.609375 30 48.394531 30 48.394531 Z M 30 48.394531 " fill-opacity="1" fill-rule="nonzero"/></g></svg>