<svg xmlns="http://www.w3.org/2000/svg" xmlns:xlink="http://www.w3.org/1999/xlink" width="80" zoomAndPan="magnify" viewBox="0 0 60 60" height="80" preserveAspectRatio="xMidYMid meet" version="1.0"><defs><clipPath id="f891a05fa7"><path d="M 6.402344 9 L 53.652344 9 L 53.652344 51 L 6.402344 51 Z M 6.402344 9 " clip-rule="nonzero"/></clipPath></defs><path fill="#53c1de" d="M 34.253906 30.027344 C 34.253906 30.308594 34.226562 30.582031 34.171875 30.855469 C 34.121094 31.128906 34.039062 31.394531 33.933594 31.652344 C 33.828125 31.910156 33.695312 32.15625 33.542969 32.386719 C 33.386719 32.621094 33.214844 32.835938 33.015625 33.03125 C 32.820312 33.230469 32.605469 33.40625 32.375 33.558594 C 32.144531 33.714844 31.902344 33.847656 31.644531 33.953125 C 31.390625 34.058594 31.125 34.140625 30.851562 34.195312 C 30.582031 34.25 30.304688 34.277344 30.027344 34.277344 C 29.75 34.277344 29.476562 34.25 29.203125 34.195312 C 28.929688 34.140625 28.667969 34.058594 28.410156 33.953125 C 28.152344 33.847656 27.910156 33.714844 27.679688 33.558594 C 27.449219 33.40625 27.234375 33.230469 27.039062 33.03125 C 26.84375 32.835938 26.667969 32.621094 26.511719 32.386719 C 26.359375 32.15625 26.230469 31.910156 26.121094 31.652344 C 26.015625 31.394531 25.9375 31.128906 25.882812 30.855469 C 25.828125 30.582031 25.800781 30.308594 25.800781 30.027344 C 25.800781 29.75 25.828125 29.472656 25.882812 29.199219 C 25.9375 28.925781 26.015625 28.660156 26.121094 28.402344 C 26.230469 28.144531 26.359375 27.898438 26.511719 27.667969 C 26.667969 27.4375 26.84375 27.222656 27.039062 27.023438 C 27.234375 26.828125 27.449219 26.652344 27.679688 26.496094 C 27.910156 26.339844 28.152344 26.210938 28.410156 26.105469 C 28.667969 25.996094 28.929688 25.917969 29.203125 25.863281 C 29.476562 25.808594 29.75 25.78125 30.027344 25.78125 C 30.304688 25.78125 30.582031 25.808594 30.851562 25.863281 C 31.125 25.917969 31.390625 25.996094 31.644531 26.105469 C 31.902344 26.210938 32.144531 26.339844 32.375 26.496094 C 32.605469 26.652344 32.820312 26.828125 33.015625 27.023438 C 33.214844 27.222656 33.386719 27.4375 33.542969 27.667969 C 33.695312 27.898438 33.828125 28.144531 33.933594 28.402344 C 34.039062 28.660156 34.121094 28.925781 34.171875 29.199219 C 34.226562 29.472656 34.253906 29.75 34.253906 30.027344 Z M 34.253906 30.027344 " fill-opacity="1" fill-rule="nonzero"/><g clip-path="url(#f891a05fa7)"><path fill="#53c1de" d="M 15.289062 37.550781 C 15.707031 37.691406 16.121094 37.828125 16.546875 37.949219 C 16.410156 38.507812 16.289062 39.054688 16.175781 39.621094 C 15.207031 44.769531 15.964844 48.847656 18.382812 50.25 C 20.875 51.695312 25.0625 50.210938 29.140625 46.621094 C 29.464844 46.335938 29.789062 46.039062 30.109375 45.722656 C 30.515625 46.121094 30.941406 46.503906 31.363281 46.871094 C 35.3125 50.285156 39.21875 51.667969 41.628906 50.265625 C 44.121094 48.820312 44.929688 44.433594 43.878906 39.09375 C 43.796875 38.683594 43.703125 38.265625 43.601562 37.839844 C 43.898438 37.757812 44.183594 37.664062 44.472656 37.570312 C 49.796875 35.800781 53.652344 32.933594 53.652344 29.992188 C 53.652344 27.183594 50.015625 24.457031 44.996094 22.722656 L 44.996094 22.71875 C 44.5 22.554688 44 22.394531 43.503906 22.246094 C 43.585938 21.90625 43.660156 21.558594 43.734375 21.21875 C 44.867188 15.691406 44.121094 11.25 41.601562 9.785156 C 39.171875 8.382812 35.214844 9.839844 31.210938 13.34375 C 30.8125 13.6875 30.425781 14.050781 30.054688 14.410156 C 29.804688 14.171875 29.546875 13.929688 29.289062 13.699219 C 25.089844 9.949219 20.882812 8.371094 18.363281 9.847656 C 15.945312 11.261719 15.226562 15.441406 16.242188 20.667969 C 16.34375 21.191406 16.453125 21.699219 16.582031 22.21875 C 15.992188 22.386719 15.410156 22.570312 14.863281 22.765625 C 9.9375 24.484375 6.402344 27.191406 6.402344 29.992188 C 6.402344 32.886719 10.167969 35.789062 15.289062 37.550781 Z M 27.839844 45.105469 C 26.320312 46.507812 24.554688 47.621094 22.636719 48.382812 C 21.613281 48.871094 20.429688 48.917969 19.378906 48.503906 C 17.910156 47.648438 17.300781 44.375 18.132812 39.96875 C 18.234375 39.449219 18.34375 38.929688 18.472656 38.417969 C 20.539062 38.863281 22.625 39.171875 24.738281 39.328125 C 25.957031 41.0625 27.292969 42.722656 28.726562 44.28125 C 28.429688 44.566406 28.132812 44.847656 27.839844 45.105469 Z M 39.5625 27.691406 C 39.128906 26.875 38.683594 26.058594 38.222656 25.261719 C 37.769531 24.476562 37.296875 23.695312 36.808594 22.925781 C 38.296875 23.113281 39.71875 23.359375 41.046875 23.667969 C 40.621094 25.039062 40.125 26.375 39.5625 27.691406 Z M 39.578125 32.308594 C 40.167969 33.65625 40.6875 35.019531 41.136719 36.417969 C 39.707031 36.742188 38.257812 36.996094 36.800781 37.160156 C 37.296875 36.382812 37.769531 35.585938 38.230469 34.785156 C 38.703125 33.96875 39.144531 33.144531 39.578125 32.308594 Z M 38.511719 30.003906 C 37.894531 31.28125 37.226562 32.542969 36.519531 33.785156 C 35.816406 35.019531 35.070312 36.214844 34.285156 37.402344 C 32.914062 37.503906 31.480469 37.550781 30.03125 37.550781 C 28.582031 37.550781 27.179688 37.503906 25.824219 37.421875 C 25.023438 36.242188 24.265625 35.035156 23.554688 33.804688 C 22.84375 32.570312 22.1875 31.320312 21.570312 30.039062 L 21.566406 30.039062 C 22.175781 28.757812 22.839844 27.503906 23.542969 26.273438 C 24.242188 25.039062 25 23.84375 25.792969 22.667969 C 27.175781 22.5625 28.589844 22.507812 30.03125 22.507812 C 31.472656 22.507812 32.890625 22.5625 34.265625 22.667969 C 35.050781 23.835938 35.796875 25.03125 36.507812 26.253906 C 37.21875 27.480469 37.882812 28.734375 38.511719 30.003906 Z M 21.824219 25.28125 C 21.371094 26.066406 20.925781 26.871094 20.511719 27.691406 C 19.929688 26.308594 19.441406 24.957031 19.035156 23.648438 C 20.363281 23.351562 21.773438 23.109375 23.242188 22.921875 C 22.753906 23.691406 22.273438 24.480469 21.824219 25.28125 Z M 20.511719 32.382812 C 20.9375 33.199219 21.371094 34.007812 21.832031 34.804688 C 22.304688 35.613281 22.78125 36.417969 23.292969 37.207031 C 21.851562 37.046875 20.421875 36.816406 19.007812 36.511719 C 19.414062 35.175781 19.921875 33.792969 20.511719 32.382812 Z M 30.101562 42.851562 C 29.160156 41.832031 28.222656 40.703125 27.308594 39.484375 C 28.191406 39.523438 29.105469 39.542969 30.03125 39.542969 C 30.980469 39.542969 31.914062 39.523438 32.835938 39.476562 C 31.988281 40.652344 31.074219 41.777344 30.101562 42.851562 Z M 42.164062 45.636719 C 42.082031 46.765625 41.527344 47.824219 40.640625 48.539062 C 39.175781 49.390625 36.046875 48.277344 32.667969 45.367188 C 32.28125 45.03125 31.890625 44.667969 31.496094 44.300781 C 32.910156 42.734375 34.210938 41.074219 35.390625 39.328125 C 37.503906 39.152344 39.609375 38.828125 41.683594 38.355469 C 41.777344 38.734375 41.859375 39.117188 41.933594 39.488281 C 42.386719 41.492188 42.460938 43.578125 42.164062 45.636719 Z M 42.964844 24.15625 C 43.445312 24.296875 43.90625 24.445312 44.351562 24.59375 C 48.652344 26.078125 51.667969 28.285156 51.667969 29.972656 C 51.667969 31.792969 48.449219 34.136719 43.84375 35.667969 C 43.585938 35.75 43.328125 35.832031 43.058594 35.910156 C 42.414062 33.886719 41.621094 31.910156 40.707031 29.992188 C 41.59375 28.097656 42.339844 26.152344 42.964844 24.15625 Z M 32.507812 14.847656 C 35.945312 11.84375 39.144531 10.667969 40.605469 11.507812 C 42.164062 12.410156 42.765625 16.042969 41.785156 20.820312 C 41.71875 21.136719 41.65625 21.441406 41.574219 21.75 C 39.523438 21.285156 37.449219 20.949219 35.363281 20.765625 C 34.164062 19.039062 32.851562 17.386719 31.429688 15.839844 C 31.789062 15.496094 32.140625 15.171875 32.507812 14.847656 Z M 30.046875 17.257812 C 31.015625 18.316406 31.929688 19.425781 32.777344 20.578125 C 30.953125 20.492188 29.113281 20.492188 27.289062 20.578125 C 28.191406 19.382812 29.125 18.269531 30.046875 17.257812 Z M 19.339844 11.574219 C 20.894531 10.667969 24.335938 11.964844 27.960938 15.191406 C 28.191406 15.394531 28.421875 15.617188 28.660156 15.839844 C 27.230469 17.386719 25.910156 19.039062 24.703125 20.761719 C 22.617188 20.949219 20.550781 21.273438 18.5 21.726562 C 18.382812 21.253906 18.28125 20.773438 18.179688 20.289062 C 17.308594 15.800781 17.882812 12.417969 19.339844 11.574219 Z M 15.511719 24.648438 C 16.039062 24.460938 16.574219 24.296875 17.109375 24.136719 C 17.738281 26.152344 18.492188 28.128906 19.371094 30.035156 C 18.484375 31.976562 17.71875 33.976562 17.082031 36.019531 L 17.078125 36.019531 C 16.691406 35.910156 16.3125 35.789062 15.9375 35.65625 C 13.972656 35.035156 11.738281 34.054688 10.121094 32.765625 C 9.191406 32.117188 8.5625 31.113281 8.386719 29.992188 C 8.386719 28.292969 11.304688 26.121094 15.511719 24.648438 Z M 15.511719 24.648438 " fill-opacity="1" fill-rule="nonzero"/></g></svg>