<svg xmlns="http://www.w3.org/2000/svg" xmlns:xlink="http://www.w3.org/1999/xlink" width="80" zoomAndPan="magnify" viewBox="0 0 60 60" height="80" preserveAspectRatio="xMidYMid meet" version="1.0"><defs><clipPath id="fe8742e92e"><path d="M 6.976562 6.976562 L 52.726562 6.976562 L 52.726562 52.726562 L 6.976562 52.726562 Z M 6.976562 6.976562 " clip-rule="nonzero"/></clipPath></defs><g clip-path="url(#fe8742e92e)"><path fill="#c76495" d="M 29.851562 52.726562 C 42.484375 52.726562 52.726562 42.484375 52.726562 29.851562 C 52.726562 17.21875 42.484375 6.976562 29.851562 6.976562 C 17.21875 6.976562 6.976562 17.21875 6.976562 29.851562 C 6.976562 42.484375 17.21875 52.726562 29.851562 52.726562 Z M 19.195312 19.859375 C 22.148438 17.097656 26.257812 14.980469 30.046875 13.632812 C 36.425781 11.363281 43.164062 12.703125 44.195312 16.765625 L 44.058594 16.640625 C 45.058594 20.644531 41.597656 25.417969 37.167969 27.132812 C 33.222656 28.675781 29.933594 28.421875 28.589844 27.992188 C 27.042969 27.476562 26.15625 26.476562 25.929688 25.902344 C 25.84375 25.675781 25.699219 25.304688 25.929688 25.1875 C 26.070312 25.101562 26.128906 25.128906 26.527344 25.558594 C 26.902344 25.960938 28.359375 27.046875 31.160156 26.730469 C 38.511719 25.902344 42.910156 20.210938 41.515625 17.15625 C 40.542969 15.011719 34.90625 14.035156 27.84375 17.554688 C 19.238281 21.84375 18.75 25.386719 18.695312 26.730469 C 18.496094 30.421875 23.269531 32.363281 25.84375 35.136719 C 25.925781 35.195312 25.984375 35.253906 26.042969 35.339844 C 26.8125 35.023438 27.902344 34.878906 29.617188 34.851562 C 33.789062 34.792969 36.136719 37.539062 36.050781 39.996094 C 35.964844 41.941406 34.191406 42.742188 33.875 42.800781 C 33.648438 42.828125 33.503906 42.828125 33.476562 42.65625 C 33.449219 42.542969 33.535156 42.488281 33.820312 42.3125 C 34.109375 42.140625 34.933594 41.542969 35.105469 40.511719 C 35.277344 39.484375 34.476562 36.96875 30.472656 36.511719 C 29.042969 36.335938 27.929688 36.453125 26.984375 36.707031 C 27.675781 38.222656 27.816406 41.3125 26.214844 43.714844 C 24.554688 46.171875 21.46875 47.691406 18.464844 46.859375 C 17.492188 46.605469 16.007812 44.601562 17.292969 41.796875 C 18.496094 39.136719 23.621094 36.566406 24.320312 36.222656 L 24.320312 36.210938 C 21.945312 34.164062 16.167969 31.410156 15.355469 27.195312 C 15.125 26 15.683594 23.140625 19.195312 19.859375 Z M 19.195312 19.859375 " fill-opacity="1" fill-rule="nonzero"/></g><path fill="#c76495" d="M 19.941406 44.644531 C 20.738281 45.105469 22.597656 44.558594 23.925781 43.109375 C 24.363281 42.632812 24.71875 42.117188 24.984375 41.566406 C 25.035156 41.460938 25.089844 41.347656 25.132812 41.230469 L 25.257812 40.886719 C 25.601562 39.851562 25.636719 38.699219 25.304688 37.472656 L 25.097656 37.585938 L 25.097656 37.59375 C 25.097656 37.59375 22.71875 38.71875 21.054688 40.46875 C 19.511719 42.097656 19.085938 44.144531 19.941406 44.644531 Z M 19.941406 44.644531 " fill-opacity="1" fill-rule="nonzero"/></svg>