<svg xmlns="http://www.w3.org/2000/svg" xmlns:xlink="http://www.w3.org/1999/xlink" width="545" zoomAndPan="magnify" viewBox="0 0 408.75 30.000001" height="40" preserveAspectRatio="xMidYMid meet" version="1.0"><defs><clipPath id="9f04c7f7b1"><path d="M 6.472656 12 L 75.421875 12 L 75.421875 17.023438 L 6.472656 17.023438 Z M 6.472656 12 " clip-rule="nonzero"/></clipPath><clipPath id="471f37fc63"><path d="M 60.90625 12 L 129.859375 12 L 129.859375 17.023438 L 60.90625 17.023438 Z M 60.90625 12 " clip-rule="nonzero"/></clipPath><clipPath id="11b705a016"><path d="M 116.503906 12 L 185.457031 12 L 185.457031 17.023438 L 116.503906 17.023438 Z M 116.503906 12 " clip-rule="nonzero"/></clipPath><clipPath id="6d53d461c2"><path d="M 172.101562 12 L 241.050781 12 L 241.050781 17.023438 L 172.101562 17.023438 Z M 172.101562 12 " clip-rule="nonzero"/></clipPath><clipPath id="b689093e6f"><path d="M 227.699219 12 L 296.648438 12 L 296.648438 17.023438 L 227.699219 17.023438 Z M 227.699219 12 " clip-rule="nonzero"/></clipPath><clipPath id="2b0b8fec67"><path d="M 283.292969 12 L 352.246094 12 L 352.246094 17.023438 L 283.292969 17.023438 Z M 283.292969 12 " clip-rule="nonzero"/></clipPath><clipPath id="b080c3dfda"><path d="M 338.890625 12 L 402.035156 12 L 402.035156 17.023438 L 338.890625 17.023438 Z M 338.890625 12 " clip-rule="nonzero"/></clipPath></defs><g clip-path="url(#9f04c7f7b1)"><path fill="#cedeeb" d="M 6.472656 12 C 10.105469 12 11.976562 12.917969 13.738281 13.796875 C 15.425781 14.640625 17.003906 15.414062 20.269531 15.414062 C 23.539062 15.414062 25.117188 14.605469 26.804688 13.796875 C 28.601562 12.917969 30.4375 12 34.070312 12 C 37.703125 12 39.574219 12.917969 41.335938 13.796875 C 43.027344 14.640625 44.605469 15.414062 47.871094 15.414062 C 51.136719 15.414062 52.714844 14.605469 54.402344 13.796875 C 56.199219 12.917969 58.035156 12 61.667969 12 C 65.300781 12 67.175781 12.917969 68.9375 13.796875 C 70.625 14.640625 72.203125 15.414062 75.46875 15.414062 L 75.46875 17.027344 C 71.835938 17.027344 69.964844 16.109375 68.203125 15.230469 C 66.515625 14.382812 64.9375 13.613281 61.667969 13.613281 C 58.402344 13.613281 56.824219 14.421875 55.136719 15.230469 C 53.339844 16.109375 51.503906 17.027344 47.871094 17.027344 C 44.238281 17.027344 42.363281 16.109375 40.601562 15.230469 C 38.914062 14.382812 37.335938 13.613281 34.070312 13.613281 C 30.804688 13.613281 29.226562 14.421875 27.539062 15.230469 C 25.738281 16.109375 23.90625 17.027344 20.269531 17.027344 C 16.636719 17.027344 14.765625 16.109375 13.003906 15.230469 C 11.316406 14.382812 9.738281 13.613281 6.472656 13.613281 Z M 6.472656 12 " fill-opacity="1" fill-rule="nonzero"/></g><g clip-path="url(#471f37fc63)"><path fill="#cedeeb" d="M 60.90625 12 C 64.539062 12 66.414062 12.917969 68.175781 13.796875 C 69.863281 14.640625 71.441406 15.414062 74.707031 15.414062 C 77.972656 15.414062 79.550781 14.605469 81.238281 13.796875 C 83.039062 12.917969 84.871094 12 88.507812 12 C 92.140625 12 94.011719 12.917969 95.773438 13.796875 C 97.460938 14.640625 99.039062 15.414062 102.304688 15.414062 C 105.570312 15.414062 107.148438 14.605469 108.839844 13.796875 C 110.636719 12.917969 112.472656 12 116.105469 12 C 119.738281 12 121.609375 12.917969 123.371094 13.796875 C 125.058594 14.640625 126.636719 15.414062 129.902344 15.414062 L 129.902344 17.027344 C 126.269531 17.027344 124.398438 16.109375 122.636719 15.230469 C 120.949219 14.382812 119.371094 13.613281 116.105469 13.613281 C 112.839844 13.613281 111.261719 14.421875 109.570312 15.230469 C 107.773438 16.109375 105.9375 17.027344 102.304688 17.027344 C 98.671875 17.027344 96.800781 16.109375 95.039062 15.230469 C 93.351562 14.382812 91.773438 13.613281 88.507812 13.613281 C 85.238281 13.613281 83.660156 14.421875 81.972656 15.230469 C 80.175781 16.109375 78.339844 17.027344 74.707031 17.027344 C 71.074219 17.027344 69.203125 16.109375 67.441406 15.230469 C 65.75 14.382812 64.171875 13.613281 60.90625 13.613281 Z M 60.90625 12 " fill-opacity="1" fill-rule="nonzero"/></g><g clip-path="url(#11b705a016)"><path fill="#cedeeb" d="M 116.503906 12 C 120.136719 12 122.007812 12.917969 123.769531 13.796875 C 125.457031 14.640625 127.035156 15.414062 130.304688 15.414062 C 133.570312 15.414062 135.148438 14.605469 136.835938 13.796875 C 138.632812 12.917969 140.46875 12 144.101562 12 C 147.734375 12 149.609375 12.917969 151.371094 13.796875 C 153.058594 14.640625 154.636719 15.414062 157.902344 15.414062 C 161.167969 15.414062 162.746094 14.605469 164.433594 13.796875 C 166.234375 12.917969 168.066406 12 171.703125 12 C 175.335938 12 177.207031 12.917969 178.96875 13.796875 C 180.65625 14.640625 182.234375 15.414062 185.5 15.414062 L 185.5 17.027344 C 181.867188 17.027344 179.996094 16.109375 178.234375 15.230469 C 176.546875 14.382812 174.96875 13.613281 171.703125 13.613281 C 168.433594 13.613281 166.855469 14.421875 165.167969 15.230469 C 163.371094 16.109375 161.535156 17.027344 157.902344 17.027344 C 154.269531 17.027344 152.398438 16.109375 150.636719 15.230469 C 148.949219 14.382812 147.371094 13.613281 144.101562 13.613281 C 140.835938 13.613281 139.257812 14.421875 137.570312 15.230469 C 135.773438 16.109375 133.9375 17.027344 130.304688 17.027344 C 126.671875 17.027344 124.796875 16.109375 123.035156 15.230469 C 121.347656 14.382812 119.769531 13.613281 116.503906 13.613281 Z M 116.503906 12 " fill-opacity="1" fill-rule="nonzero"/></g><g clip-path="url(#6d53d461c2)"><path fill="#cedeeb" d="M 172.101562 12 C 175.734375 12 177.605469 12.917969 179.367188 13.796875 C 181.054688 14.640625 182.632812 15.414062 185.898438 15.414062 C 189.167969 15.414062 190.746094 14.605469 192.433594 13.796875 C 194.230469 12.917969 196.066406 12 199.699219 12 C 203.332031 12 205.203125 12.917969 206.964844 13.796875 C 208.65625 14.640625 210.234375 15.414062 213.5 15.414062 C 216.765625 15.414062 218.34375 14.605469 220.03125 13.796875 C 221.828125 12.917969 223.664062 12 227.296875 12 C 230.933594 12 232.804688 12.917969 234.566406 13.796875 C 236.253906 14.640625 237.832031 15.414062 241.097656 15.414062 L 241.097656 17.027344 C 237.464844 17.027344 235.59375 16.109375 233.832031 15.230469 C 232.144531 14.382812 230.566406 13.613281 227.296875 13.613281 C 224.03125 13.613281 222.453125 14.421875 220.765625 15.230469 C 218.96875 16.109375 217.132812 17.027344 213.5 17.027344 C 209.867188 17.027344 207.992188 16.109375 206.230469 15.230469 C 204.542969 14.382812 202.964844 13.613281 199.699219 13.613281 C 196.433594 13.613281 194.855469 14.421875 193.167969 15.230469 C 191.367188 16.109375 189.535156 17.027344 185.898438 17.027344 C 182.265625 17.027344 180.394531 16.109375 178.632812 15.230469 C 176.945312 14.382812 175.367188 13.613281 172.101562 13.613281 Z M 172.101562 12 " fill-opacity="1" fill-rule="nonzero"/></g><g clip-path="url(#b689093e6f)"><path fill="#cedeeb" d="M 227.699219 12 C 231.332031 12 233.203125 12.917969 234.964844 13.796875 C 236.652344 14.640625 238.230469 15.414062 241.496094 15.414062 C 244.761719 15.414062 246.339844 14.605469 248.03125 13.796875 C 249.828125 12.917969 251.664062 12 255.296875 12 C 258.929688 12 260.800781 12.917969 262.5625 13.796875 C 264.25 14.640625 265.828125 15.414062 269.097656 15.414062 C 272.363281 15.414062 273.941406 14.605469 275.628906 13.796875 C 277.425781 12.917969 279.261719 12 282.894531 12 C 286.527344 12 288.398438 12.917969 290.160156 13.796875 C 291.851562 14.640625 293.429688 15.414062 296.695312 15.414062 L 296.695312 17.027344 C 293.0625 17.027344 291.191406 16.109375 289.429688 15.230469 C 287.738281 14.382812 286.160156 13.613281 282.894531 13.613281 C 279.628906 13.613281 278.050781 14.421875 276.363281 15.230469 C 274.5625 16.109375 272.730469 17.027344 269.097656 17.027344 C 265.460938 17.027344 263.589844 16.109375 261.828125 15.230469 C 260.140625 14.382812 258.5625 13.613281 255.296875 13.613281 C 252.03125 13.613281 250.453125 14.421875 248.761719 15.230469 C 246.964844 16.109375 245.128906 17.027344 241.496094 17.027344 C 237.863281 17.027344 235.992188 16.109375 234.230469 15.230469 C 232.542969 14.382812 230.964844 13.613281 227.699219 13.613281 Z M 227.699219 12 " fill-opacity="1" fill-rule="nonzero"/></g><g clip-path="url(#2b0b8fec67)"><path fill="#cedeeb" d="M 283.292969 12 C 286.925781 12 288.800781 12.917969 290.5625 13.796875 C 292.25 14.640625 293.828125 15.414062 297.09375 15.414062 C 300.359375 15.414062 301.9375 14.605469 303.625 13.796875 C 305.425781 12.917969 307.261719 12 310.894531 12 C 314.527344 12 316.398438 12.917969 318.160156 13.796875 C 319.847656 14.640625 321.425781 15.414062 324.691406 15.414062 C 327.957031 15.414062 329.535156 14.605469 331.226562 13.796875 C 333.023438 12.917969 334.859375 12 338.492188 12 C 342.125 12 343.996094 12.917969 345.757812 13.796875 C 347.445312 14.640625 349.023438 15.414062 352.292969 15.414062 L 352.292969 17.027344 C 348.65625 17.027344 346.785156 16.109375 345.023438 15.230469 C 343.335938 14.382812 341.757812 13.613281 338.492188 13.613281 C 335.226562 13.613281 333.648438 14.421875 331.960938 15.230469 C 330.160156 16.109375 328.324219 17.027344 324.691406 17.027344 C 321.058594 17.027344 319.1875 16.109375 317.425781 15.230469 C 315.738281 14.382812 314.160156 13.613281 310.894531 13.613281 C 307.625 13.613281 306.046875 14.421875 304.359375 15.230469 C 302.5625 16.109375 300.726562 17.027344 297.09375 17.027344 C 293.460938 17.027344 291.589844 16.109375 289.828125 15.230469 C 288.140625 14.382812 286.5625 13.613281 283.292969 13.613281 Z M 283.292969 12 " fill-opacity="1" fill-rule="nonzero"/></g><g clip-path="url(#b080c3dfda)"><path fill="#cedeeb" d="M 338.890625 12 C 342.523438 12 344.394531 12.917969 346.15625 13.796875 C 347.847656 14.640625 349.425781 15.414062 352.691406 15.414062 C 355.957031 15.414062 357.535156 14.605469 359.222656 13.796875 C 361.023438 12.917969 362.855469 12 366.488281 12 C 370.125 12 371.996094 12.917969 373.757812 13.796875 C 375.445312 14.640625 377.023438 15.414062 380.289062 15.414062 C 383.554688 15.414062 385.132812 14.605469 386.820312 13.796875 C 388.621094 12.917969 390.457031 12 394.089844 12 C 397.722656 12 399.59375 12.917969 401.355469 13.796875 C 403.042969 14.640625 404.621094 15.414062 407.886719 15.414062 L 407.886719 17.027344 C 404.253906 17.027344 402.382812 16.109375 400.621094 15.230469 C 398.933594 14.382812 397.355469 13.613281 394.089844 13.613281 C 390.824219 13.613281 389.246094 14.421875 387.554688 15.230469 C 385.757812 16.109375 383.921875 17.027344 380.289062 17.027344 C 376.65625 17.027344 374.785156 16.109375 373.023438 15.230469 C 371.335938 14.382812 369.757812 13.613281 366.488281 13.613281 C 363.222656 13.613281 361.644531 14.421875 359.957031 15.230469 C 358.160156 16.109375 356.324219 17.027344 352.691406 17.027344 C 349.058594 17.027344 347.183594 16.109375 345.421875 15.230469 C 343.734375 14.382812 342.15625 13.613281 338.890625 13.613281 Z M 338.890625 12 " fill-opacity="1" fill-rule="nonzero"/></g></svg>