<svg xmlns="http://www.w3.org/2000/svg" xmlns:xlink="http://www.w3.org/1999/xlink" width="1440" zoomAndPan="magnify" viewBox="0 0 1080 60" height="80" preserveAspectRatio="xMidYMid meet" version="1.0"><defs><clipPath id="5435f3e16b"><path d="M 0 0 L 1080 0 L 1080 48.132812 L 0 48.132812 Z M 0 0 " clip-rule="nonzero"/></clipPath><clipPath id="8576c75dad"><path d="M 0 33.472656 L 65.601562 33.472656 L 65.601562 60 L 0 60 Z M 0 33.472656 " clip-rule="nonzero"/></clipPath><clipPath id="4a42ccab4a"><path d="M 63.207031 33.472656 L 239.457031 33.472656 L 239.457031 60 L 63.207031 60 Z M 63.207031 33.472656 " clip-rule="nonzero"/></clipPath><clipPath id="f0870a31bf"><path d="M 236.539062 33.472656 L 412.789062 33.472656 L 412.789062 60 L 236.539062 60 Z M 236.539062 33.472656 " clip-rule="nonzero"/></clipPath><clipPath id="9f971e8924"><path d="M 411 33.472656 L 587.15625 33.472656 L 587.15625 60 L 411 60 Z M 411 33.472656 " clip-rule="nonzero"/></clipPath><clipPath id="6023bb4c7b"><path d="M 585.277344 33.472656 L 761.527344 33.472656 L 761.527344 60 L 585.277344 60 Z M 585.277344 33.472656 " clip-rule="nonzero"/></clipPath><clipPath id="0f74f18b2b"><path d="M 759.644531 33.472656 L 935.894531 33.472656 L 935.894531 60 L 759.644531 60 Z M 759.644531 33.472656 " clip-rule="nonzero"/></clipPath><clipPath id="8de41d8d95"><path d="M 933.476562 33.472656 L 1080 33.472656 L 1080 60 L 933.476562 60 Z M 933.476562 33.472656 " clip-rule="nonzero"/></clipPath></defs><rect x="-108" width="1296" fill="#ffffff" y="-6" height="72" fill-opacity="1"/><rect x="-108" width="1296" fill="#ffffff" y="-6" height="72" fill-opacity="1"/><g clip-path="url(#5435f3e16b)"><path fill="#da7073" d="M -17.925781 -4.28125 L 1132.921875 -4.28125 L 1132.921875 48.132812 L -17.925781 48.132812 Z M -17.925781 -4.28125 " fill-opacity="1" fill-rule="nonzero"/></g><g clip-path="url(#8576c75dad)"><path fill="#cedeeb" d="M 65.644531 34.945312 C 65.644531 34.128906 64.972656 33.46875 64.15625 33.492188 C 50.949219 33.871094 50.453125 39.277344 36.289062 39.277344 C 21.613281 39.277344 21.613281 33.472656 6.933594 33.472656 C -7.742188 33.472656 -7.742188 39.277344 -22.417969 39.277344 C -37.097656 39.277344 -37.097656 33.472656 -51.773438 33.472656 C -66.453125 33.472656 -66.453125 39.277344 -81.128906 39.277344 C -95.292969 39.277344 -95.789062 33.871094 -108.996094 33.492188 C -109.808594 33.46875 -110.484375 34.128906 -110.484375 34.945312 L -110.484375 62.019531 C -110.484375 62.824219 -109.832031 63.472656 -109.03125 63.472656 L 64.195312 63.472656 C 64.996094 63.472656 65.644531 62.824219 65.644531 62.019531 Z M 65.644531 34.945312 " fill-opacity="1" fill-rule="nonzero"/></g><g clip-path="url(#4a42ccab4a)"><path fill="#cedeeb" d="M 239.503906 34.945312 C 239.503906 34.128906 238.828125 33.46875 238.011719 33.492188 C 224.808594 33.871094 224.3125 39.277344 210.148438 39.277344 C 195.46875 39.277344 195.46875 33.472656 180.792969 33.472656 C 166.113281 33.472656 166.113281 39.277344 151.4375 39.277344 C 136.757812 39.277344 136.757812 33.472656 122.082031 33.472656 C 107.40625 33.472656 107.40625 39.277344 92.726562 39.277344 C 78.566406 39.277344 78.070312 33.871094 64.863281 33.492188 C 64.046875 33.46875 63.375 34.128906 63.375 34.945312 L 63.375 62.019531 C 63.375 62.824219 64.023438 63.472656 64.824219 63.472656 L 238.050781 63.472656 C 238.851562 63.472656 239.503906 62.824219 239.503906 62.019531 Z M 239.503906 34.945312 " fill-opacity="1" fill-rule="nonzero"/></g><g clip-path="url(#f0870a31bf)"><path fill="#cedeeb" d="M 412.832031 34.945312 C 412.832031 34.128906 412.160156 33.46875 411.34375 33.492188 C 398.136719 33.871094 397.640625 39.277344 383.476562 39.277344 C 368.800781 39.277344 368.800781 33.472656 354.125 33.472656 C 339.445312 33.472656 339.445312 39.277344 324.769531 39.277344 C 310.089844 39.277344 310.089844 33.472656 295.414062 33.472656 C 280.734375 33.472656 280.734375 39.277344 266.058594 39.277344 C 251.894531 39.277344 251.398438 33.871094 238.195312 33.492188 C 237.378906 33.46875 236.703125 34.128906 236.703125 34.945312 L 236.703125 62.019531 C 236.703125 62.824219 237.355469 63.472656 238.15625 63.472656 L 411.382812 63.472656 C 412.183594 63.472656 412.832031 62.824219 412.832031 62.019531 Z M 412.832031 34.945312 " fill-opacity="1" fill-rule="nonzero"/></g><g clip-path="url(#9f971e8924)"><path fill="#cedeeb" d="M 587.203125 34.945312 C 587.203125 34.128906 586.53125 33.46875 585.714844 33.492188 C 572.507812 33.871094 572.011719 39.277344 557.847656 39.277344 C 543.167969 39.277344 543.167969 33.472656 528.492188 33.472656 C 513.816406 33.472656 513.816406 39.277344 499.136719 39.277344 C 484.460938 39.277344 484.460938 33.472656 469.78125 33.472656 C 455.105469 33.472656 455.105469 39.277344 440.429688 39.277344 C 426.265625 39.277344 425.769531 33.871094 412.5625 33.492188 C 411.746094 33.46875 411.074219 34.128906 411.074219 34.945312 L 411.074219 62.019531 C 411.074219 62.824219 411.722656 63.472656 412.523438 63.472656 L 585.75 63.472656 C 586.550781 63.472656 587.203125 62.824219 587.203125 62.019531 Z M 587.203125 34.945312 " fill-opacity="1" fill-rule="nonzero"/></g><g clip-path="url(#6023bb4c7b)"><path fill="#cedeeb" d="M 761.570312 34.945312 C 761.570312 34.128906 760.898438 33.46875 760.082031 33.492188 C 746.875 33.871094 746.378906 39.277344 732.214844 39.277344 C 717.539062 39.277344 717.539062 33.472656 702.859375 33.472656 C 688.183594 33.472656 688.183594 39.277344 673.503906 39.277344 C 658.828125 39.277344 658.828125 33.472656 644.152344 33.472656 C 629.472656 33.472656 629.472656 39.277344 614.796875 39.277344 C 600.632812 39.277344 600.136719 33.871094 586.929688 33.492188 C 586.117188 33.46875 585.441406 34.128906 585.441406 34.945312 L 585.441406 62.019531 C 585.441406 62.824219 586.09375 63.472656 586.894531 63.472656 L 760.121094 63.472656 C 760.921875 63.472656 761.570312 62.824219 761.570312 62.019531 Z M 761.570312 34.945312 " fill-opacity="1" fill-rule="nonzero"/></g><g clip-path="url(#0f74f18b2b)"><path fill="#cedeeb" d="M 935.941406 34.945312 C 935.941406 34.128906 935.265625 33.46875 934.453125 33.492188 C 921.246094 33.871094 920.75 39.277344 906.585938 39.277344 C 891.90625 39.277344 891.90625 33.472656 877.230469 33.472656 C 862.550781 33.472656 862.550781 39.277344 847.875 39.277344 C 833.195312 39.277344 833.195312 33.472656 818.519531 33.472656 C 803.84375 33.472656 803.84375 39.277344 789.164062 39.277344 C 775.003906 39.277344 774.507812 33.871094 761.300781 33.492188 C 760.484375 33.46875 759.8125 34.128906 759.8125 34.945312 L 759.8125 62.019531 C 759.8125 62.824219 760.460938 63.472656 761.261719 63.472656 L 934.488281 63.472656 C 935.289062 63.472656 935.941406 62.824219 935.941406 62.019531 Z M 935.941406 34.945312 " fill-opacity="1" fill-rule="nonzero"/></g><g clip-path="url(#8de41d8d95)"><path fill="#cedeeb" d="M 1109.773438 34.945312 C 1109.773438 34.128906 1109.101562 33.46875 1108.285156 33.492188 C 1095.078125 33.871094 1094.582031 39.277344 1080.417969 39.277344 C 1065.742188 39.277344 1065.742188 33.472656 1051.0625 33.472656 C 1036.386719 33.472656 1036.386719 39.277344 1021.707031 39.277344 C 1007.03125 39.277344 1007.03125 33.472656 992.351562 33.472656 C 977.675781 33.472656 977.675781 39.277344 963 39.277344 C 948.835938 39.277344 948.339844 33.871094 935.132812 33.492188 C 934.316406 33.46875 933.644531 34.128906 933.644531 34.945312 L 933.644531 62.019531 C 933.644531 62.824219 934.292969 63.472656 935.097656 63.472656 L 1108.320312 63.472656 C 1109.125 63.472656 1109.773438 62.824219 1109.773438 62.019531 Z M 1109.773438 34.945312 " fill-opacity="1" fill-rule="nonzero"/></g></svg>